<!-- icon666.com - MILLIONS vector ICONS FREE --><svg version="1.1" id="Capa_1" xmlns="http://www.w3.org/2000/svg" xmlns:xlink="http://www.w3.org/1999/xlink" x="0px" y="0px" viewBox="0 0 512 512" style="enable-background:new 0 0 512 512;" xml:space="preserve"><g><g><path d="M168.437,393c16.368,58.561,43.122,106.921,72.463,119V393H168.437z"></path></g></g><g><g><path d="M150.363,273c0.958,30.449,4.759,61.119,10.849,90H240.9v-90H150.363z"></path></g></g><g><g><path d="M271,393v119c29.341-12.079,56.195-60.439,72.563-119H271z"></path></g></g><g><g><path d="M120.385,273H0.76c1.871,31.928,9.529,62.269,22.126,90h107.595C124.667,334.219,121.269,303.74,120.385,273z"></path></g></g><g><g><path d="M137.637,393H39.062c33.779,53.837,86.993,96.527,149.837,113.439C167.402,479.466,149.725,437.96,137.637,393z"></path></g></g><g><g><path d="M374.363,393c-12.088,44.96-29.765,86.466-51.262,113.439C385.945,489.527,439.159,446.837,472.938,393H374.363z"></path></g></g><g><g><path d="M391.615,273c-0.884,30.74-4.283,61.219-10.096,90h107.595c12.597-27.731,20.255-58.072,22.126-90H391.615z"></path></g></g><g><g><path d="M271,273v90h79.788c6.09-28.881,9.891-59.551,10.849-90H271z"></path></g></g><g><g><path d="M256,0c-33.091,0-61,29.909-61,63s27.909,60,61,60s61-26.909,61-60S289.091,0,256,0z"></path></g></g><g><g><path d="M437,63c-24.814,0-45,20.186-45,45c0,24.814,20.186,45,45,45c24.814,0,45-20.186,45-45C482,83.186,461.814,63,437,63z"></path></g></g><g><g><path d="M75,63c-24.814,0-45,20.186-45,45c0,24.814,20.186,45,45,45s45-20.186,45-45C120,83.186,99.814,63,75,63z"></path></g></g><g><g><path d="M481.112,168.35C468.699,177.452,453.536,183,437,183c-16.569,0-31.76-5.576-44.185-14.711 c-7.214,5.383-13.797,11.547-18.704,19.124C375.916,195.676,377,204.202,377,213v30h124.404c5.852,0,10.596-4.744,10.596-10.596 C512,206.987,500.062,183.167,481.112,168.35z"></path></g></g><g><g><path d="M306.429,138.075C292.224,147.459,274.263,153,256,153c-18.239,0-36.178-5.532-50.373-14.894 C180.709,155.162,165,184.926,165,216.6V228c0,8.401,6.599,15,15,15h152c8.401,0,15-6.599,15-15v-15 C347,180.834,330.789,154.121,306.429,138.075z"></path></g></g><g><g><path d="M119.185,168.289C106.758,177.424,91.569,183,75,183c-16.536,0-31.699-5.548-44.112-14.65 C11.938,183.167,0,206.987,0,232.404V243h135v-30c0-8.798,1.084-17.324,2.889-25.587 C132.982,179.836,126.397,173.673,119.185,168.289z"></path></g></g></svg>