<!-- icon666.com - MILLIONS vector ICONS FREE --><svg viewBox="-47 -19 616 616" xmlns="http://www.w3.org/2000/svg"><path d="m196.167969 154.878906 63.25 20.398438 63.25-20.398438-63.25-20.394531zm0 0"></path><path d="m266.917969 298.101562 75-24.351562v-106.855469l-75 24.351563zm0 0"></path><path d="m388.519531 78.75-56.601562-64.140625v55.054687c0 4.710938 3.210937 9.085938 7.925781 9.085938zm0 0"></path><path d="m138.515625 0c-14.253906 0-25.347656 12.148438-25.347656 26.402344v359.847656h292.5v-288.429688l-1.398438-1.570312h-64.425781c-14.363281 0-25.425781-12.222656-25.425781-26.585938v-69.664062zm215.09375 146.546875c3.554687 1.195313 5.914063 4.578125 5.808594 8.328125v125.25c.113281 3.746094-2.238281 7.132812-5.792969 8.328125l-91.492188 29.59375c-.851562.277344-1.75.421875-2.648437.421875-.894531 0-1.785156-.144531-2.628906-.421875l-91.628907-29.59375c-3.554687-1.195313-5.914062-4.578125-5.808593-8.328125v-125.25c-.121094-3.746094 2.222656-7.132812 5.777343-8.328125l91.46875-29.589844c1.726563-.566406 3.585938-.566406 5.308594 0zm0 0"></path><path d="m176.917969 273.75 72.5 23.546875v-106.859375l-72.5-23.542969zm0 0"></path><path d="m-1.832031 460.9375c-.046875 3.765625 1.441406 7.390625 4.117187 10.042969 2.679688 2.652343 6.320313 4.101562 10.082032 4.019531h494.097656c3.765625.082031 7.402344-1.367188 10.082031-4.019531 2.675781-2.652344 4.167969-6.277344 4.121094-10.042969v-294.914062c.148437-7.996094-6.203125-14.609376-14.203125-14.773438h-83.296875v252.5h-425zm0 0"></path><path d="m12.367188 111.25c-7.996094.164062-14.347657 6.777344-14.199219 14.773438v260.226562h97.5v-275zm0 0"></path><path d="m411.097656 568.75c0-4.835938-3.914062-8.75-8.75-8.75h-55.246094l-18.253906-67.5h-138.855468l-18.25 67.5h-55.253907c-4.828125 0-8.75 3.914062-8.75 8.75s3.921875 8.75 8.75 8.75h285.867188c4.828125-.003906 8.742187-3.921875 8.742187-8.75zm0 0"></path></svg>