<?xml version="1.0" encoding="utf-8"?>
<svg xmlns="http://www.w3.org/2000/svg">
<symbol id="arrow-right" viewBox="0 0 434.002 434.002"><g><g><path d="M95.457,434.002l-33.105-45.076l234.094-171.928L62.352,45.077L95.456,0L360.24,194.459 c7.174,5.269,11.41,13.638,11.41,22.539c0,8.9-4.236,17.27-11.41,22.538L95.457,434.002z"/></g></g>
</symbol>
<symbol id="arrow-up" viewBox="0 0 20 20">
<path d="M10 17L10 5" stroke="currentColor" stroke-width="2" stroke-linecap="round" stroke-linejoin="round"/>
<path d="M4.16666 9.99999L10 4.16666L15.8333 9.99999" stroke="currentColor" stroke-width="2" stroke-linecap="round" stroke-linejoin="round"/>

</symbol>
<symbol id="citizens" viewBox="0 0 512 512"><g><g><path d="M168.437,393c16.368,58.561,43.122,106.921,72.463,119V393H168.437z"/></g></g><g><g><path d="M150.363,273c0.958,30.449,4.759,61.119,10.849,90H240.9v-90H150.363z"/></g></g><g><g><path d="M271,393v119c29.341-12.079,56.195-60.439,72.563-119H271z"/></g></g><g><g><path d="M120.385,273H0.76c1.871,31.928,9.529,62.269,22.126,90h107.595C124.667,334.219,121.269,303.74,120.385,273z"/></g></g><g><g><path d="M137.637,393H39.062c33.779,53.837,86.993,96.527,149.837,113.439C167.402,479.466,149.725,437.96,137.637,393z"/></g></g><g><g><path d="M374.363,393c-12.088,44.96-29.765,86.466-51.262,113.439C385.945,489.527,439.159,446.837,472.938,393H374.363z"/></g></g><g><g><path d="M391.615,273c-0.884,30.74-4.283,61.219-10.096,90h107.595c12.597-27.731,20.255-58.072,22.126-90H391.615z"/></g></g><g><g><path d="M271,273v90h79.788c6.09-28.881,9.891-59.551,10.849-90H271z"/></g></g><g><g><path d="M256,0c-33.091,0-61,29.909-61,63s27.909,60,61,60s61-26.909,61-60S289.091,0,256,0z"/></g></g><g><g><path d="M437,63c-24.814,0-45,20.186-45,45c0,24.814,20.186,45,45,45c24.814,0,45-20.186,45-45C482,83.186,461.814,63,437,63z"/></g></g><g><g><path d="M75,63c-24.814,0-45,20.186-45,45c0,24.814,20.186,45,45,45s45-20.186,45-45C120,83.186,99.814,63,75,63z"/></g></g><g><g><path d="M481.112,168.35C468.699,177.452,453.536,183,437,183c-16.569,0-31.76-5.576-44.185-14.711 c-7.214,5.383-13.797,11.547-18.704,19.124C375.916,195.676,377,204.202,377,213v30h124.404c5.852,0,10.596-4.744,10.596-10.596 C512,206.987,500.062,183.167,481.112,168.35z"/></g></g><g><g><path d="M306.429,138.075C292.224,147.459,274.263,153,256,153c-18.239,0-36.178-5.532-50.373-14.894 C180.709,155.162,165,184.926,165,216.6V228c0,8.401,6.599,15,15,15h152c8.401,0,15-6.599,15-15v-15 C347,180.834,330.789,154.121,306.429,138.075z"/></g></g><g><g><path d="M119.185,168.289C106.758,177.424,91.569,183,75,183c-16.536,0-31.699-5.548-44.112-14.65 C11.938,183.167,0,206.987,0,232.404V243h135v-30c0-8.798,1.084-17.324,2.889-25.587 C132.982,179.836,126.397,173.673,119.185,168.289z"/></g></g>
</symbol>
<symbol id="dashboard" viewBox="0 -49 512 511"><path d="m492 .5c-25.089844 0-457.007812 0-472 0-11.046875 0-20 8.953125-20 20v372c0 11.046875 8.953125 20 20 20h472c11.046875 0 20-8.953125 20-20 0-6.792969 0-359.671875 0-372 0-11.046875-8.953125-20-20-20zm-294.667969 40h117.332031v99.011719h-117.332031zm-157.332031 0h117.332031v99.011719h-117.332031zm432 332h-432v-192.988281h432zm0-232.988281h-117.332031v-99.011719h117.332031zm-195.027344 141.117187 74.316406-74.316406c7.808594-7.808594 20.472657-7.808594 28.285157 0 7.808593 7.8125 7.808593 20.472656 0 28.285156l-88.460938 88.457032c-7.808593 7.808593-20.476562 7.804687-28.285156 0l-39.714844-39.714844-62.402343 62.402344c-7.8125 7.808593-20.472657 7.808593-28.285157 0-7.808593-7.8125-7.808593-20.476563 0-28.285157l76.546875-76.546875c7.808594-7.808594 20.480469-7.804687 28.285156 0zm0 0"/>
</symbol>
<symbol id="filter" viewBox="0 0 420.052 420.052"><g><g><path d="M418.516,0.106H1.748c-0.512,0-0.512,0-1.024,0c-0.512,0-1.024,1.024-0.512,2.56l163.84,222.72v194.56l92.16-33.792 V225.386l163.84-222.72c0,0,0-0.512,0-1.024C419.54,0.618,419.028,0.106,418.516,0.106z"/></g></g>
</symbol>
<symbol id="find" viewBox="0 0 24 24">
<path d="M11 19C15.4183 19 19 15.4183 19 11C19 6.58172 15.4183 3 11 3C6.58172 3 3 6.58172 3 11C3 15.4183 6.58172 19 11 19Z" stroke="#7E7E7E" stroke-width="2" stroke-linecap="round" stroke-linejoin="round"/>
<path d="M21 21L16.65 16.65" stroke="#7E7E7E" stroke-width="2" stroke-linecap="round" stroke-linejoin="round"/>

</symbol>
<symbol id="git" viewBox="0 0 20 20">
    
    <title>github [#142]</title>
    <desc>Created with Sketch.</desc>
    <defs>

</defs>
    <g id="Page-1" stroke="currentColor" stroke-width="1" fill="currentColor" fill-rule="evenodd">
        <g id="Dribbble-Light-Preview" transform="translate(-140.000000, -7559.000000)" fill="currentColor">
            <g id="icons" transform="translate(56.000000, 160.000000)">
                <path d="M94,7399 C99.523,7399 104,7403.59 104,7409.253 C104,7413.782 101.138,7417.624 97.167,7418.981 C96.66,7419.082 96.48,7418.762 96.48,7418.489 C96.48,7418.151 96.492,7417.047 96.492,7415.675 C96.492,7414.719 96.172,7414.095 95.813,7413.777 C98.04,7413.523 100.38,7412.656 100.38,7408.718 C100.38,7407.598 99.992,7406.684 99.35,7405.966 C99.454,7405.707 99.797,7404.664 99.252,7403.252 C99.252,7403.252 98.414,7402.977 96.505,7404.303 C95.706,7404.076 94.85,7403.962 94,7403.958 C93.15,7403.962 92.295,7404.076 91.497,7404.303 C89.586,7402.977 88.746,7403.252 88.746,7403.252 C88.203,7404.664 88.546,7405.707 88.649,7405.966 C88.01,7406.684 87.619,7407.598 87.619,7408.718 C87.619,7412.646 89.954,7413.526 92.175,7413.785 C91.889,7414.041 91.63,7414.493 91.54,7415.156 C90.97,7415.418 89.522,7415.871 88.63,7414.304 C88.63,7414.304 88.101,7413.319 87.097,7413.247 C87.097,7413.247 86.122,7413.234 87.029,7413.87 C87.029,7413.87 87.684,7414.185 88.139,7415.37 C88.139,7415.37 88.726,7417.2 91.508,7416.58 C91.513,7417.437 91.522,7418.245 91.522,7418.489 C91.522,7418.76 91.338,7419.077 90.839,7418.982 C86.865,7417.627 84,7413.783 84,7409.253 C84,7403.59 88.478,7399 94,7399" id="github-[#142]">

</path>
            </g>
        </g>
    </g>

</symbol>
<symbol id="help" viewBox="0 0 330 330"><g><path d="M165,0C74.019,0,0,74.018,0,164.999C0,255.98,74.019,330,165,330s165-74.02,165-165.001C330,74.018,255.981,0,165,0z M165,300c-74.439,0-135-60.561-135-135.001C30,90.56,90.561,30,165,30s135,60.56,135,134.999C300,239.439,239.439,300,165,300z"/><path d="M165.002,230c-11.026,0-19.996,8.968-19.996,19.991c0,11.033,8.97,20.009,19.996,20.009 c11.026,0,19.996-8.976,19.996-20.009C184.998,238.968,176.028,230,165.002,230z"/><path d="M165,60c-30.342,0-55.026,24.684-55.026,55.024c0,8.284,6.716,15,15,15c8.284,0,15-6.716,15-15 C139.974,101.226,151.2,90,165,90s25.027,11.226,25.027,25.024c0,13.8-11.227,25.026-25.027,25.026c-8.284,0-15,6.716-15,15V185 c0,8.284,6.716,15,15,15s15-6.716,15-15v-17.044c23.072-6.548,40.027-27.79,40.027-52.931C220.027,84.684,195.342,60,165,60z"/></g>
</symbol>
<symbol id="logo" viewBox="0 0 195 39">
<path d="M53.138 10.852C55.0447 10.852 56.7173 11.2247 58.156 11.97C59.612 12.7153 60.73 13.7813 61.51 15.168C62.3073 16.5373 62.706 18.132 62.706 19.952C62.706 21.772 62.3073 23.3667 61.51 24.736C60.73 26.088 59.612 27.1367 58.156 27.882C56.7173 28.6273 55.0447 29 53.138 29H46.794V10.852H53.138ZM53.008 25.906C54.9147 25.906 56.388 25.386 57.428 24.346C58.468 23.306 58.988 21.8413 58.988 19.952C58.988 18.0627 58.468 16.5893 57.428 15.532C56.388 14.4573 54.9147 13.92 53.008 13.92H50.434V25.906H53.008ZM64.7547 21.746C64.7547 20.29 65.0407 18.9987 65.6127 17.872C66.2021 16.7453 66.9907 15.8787 67.9787 15.272C68.9841 14.6653 70.1021 14.362 71.3327 14.362C72.4074 14.362 73.3434 14.5787 74.1407 15.012C74.9554 15.4453 75.6054 15.9913 76.0907 16.65V14.596H79.7567V29H76.0907V26.894C75.6227 27.57 74.9727 28.1333 74.1407 28.584C73.3261 29.0173 72.3814 29.234 71.3067 29.234C70.0934 29.234 68.9841 28.922 67.9787 28.298C66.9907 27.674 66.2021 26.7987 65.6127 25.672C65.0407 24.528 64.7547 23.2193 64.7547 21.746ZM76.0907 21.798C76.0907 20.914 75.9174 20.16 75.5707 19.536C75.2241 18.8947 74.7561 18.4093 74.1667 18.08C73.5774 17.7333 72.9447 17.56 72.2687 17.56C71.5927 17.56 70.9687 17.7247 70.3967 18.054C69.8247 18.3833 69.3567 18.8687 68.9927 19.51C68.6461 20.134 68.4727 20.8793 68.4727 21.746C68.4727 22.6127 68.6461 23.3753 68.9927 24.034C69.3567 24.6753 69.8247 25.1693 70.3967 25.516C70.9861 25.8627 71.6101 26.036 72.2687 26.036C72.9447 26.036 73.5774 25.8713 74.1667 25.542C74.7561 25.1953 75.2241 24.71 75.5707 24.086C75.9174 23.4447 76.0907 22.682 76.0907 21.798ZM89.0838 29.234C87.9051 29.234 86.8478 29.026 85.9118 28.61C84.9758 28.1767 84.2305 27.596 83.6758 26.868C83.1385 26.14 82.8438 25.334 82.7918 24.45H86.4578C86.5271 25.0047 86.7958 25.464 87.2638 25.828C87.7491 26.192 88.3471 26.374 89.0578 26.374C89.7511 26.374 90.2885 26.2353 90.6698 25.958C91.0685 25.6807 91.2678 25.3253 91.2678 24.892C91.2678 24.424 91.0251 24.0773 90.5398 23.852C90.0718 23.6093 89.3178 23.3493 88.2778 23.072C87.2031 22.812 86.3191 22.5433 85.6258 22.266C84.9498 21.9887 84.3605 21.564 83.8578 20.992C83.3725 20.42 83.1298 19.6487 83.1298 18.678C83.1298 17.8807 83.3551 17.1527 83.8058 16.494C84.2738 15.8353 84.9325 15.3153 85.7818 14.934C86.6485 14.5527 87.6625 14.362 88.8238 14.362C90.5398 14.362 91.9091 14.7953 92.9318 15.662C93.9545 16.5113 94.5178 17.664 94.6218 19.12H91.1378C91.0858 18.548 90.8431 18.0973 90.4098 17.768C89.9938 17.4213 89.4305 17.248 88.7198 17.248C88.0611 17.248 87.5498 17.3693 87.1858 17.612C86.8391 17.8547 86.6658 18.1927 86.6658 18.626C86.6658 19.1113 86.9085 19.484 87.3938 19.744C87.8791 19.9867 88.6331 20.238 89.6558 20.498C90.6958 20.758 91.5538 21.0267 92.2298 21.304C92.9058 21.5813 93.4865 22.0147 93.9718 22.604C94.4745 23.176 94.7345 23.9387 94.7518 24.892C94.7518 25.724 94.5178 26.4693 94.0498 27.128C93.5991 27.7867 92.9405 28.3067 92.0738 28.688C91.2245 29.052 90.2278 29.234 89.0838 29.234ZM106.112 14.388C107.204 14.388 108.174 14.6307 109.024 15.116C109.873 15.584 110.532 16.286 111 17.222C111.485 18.1407 111.728 19.25 111.728 20.55V29H108.088V21.044C108.088 19.9 107.802 19.0247 107.23 18.418C106.658 17.794 105.878 17.482 104.89 17.482C103.884 17.482 103.087 17.794 102.498 18.418C101.926 19.0247 101.64 19.9 101.64 21.044V29H97.9998V9.76H101.64V16.39C102.108 15.766 102.732 15.2807 103.512 14.934C104.292 14.57 105.158 14.388 106.112 14.388ZM119.089 16.702C119.557 16.0087 120.199 15.4453 121.013 15.012C121.845 14.5787 122.79 14.362 123.847 14.362C125.078 14.362 126.187 14.6653 127.175 15.272C128.181 15.8787 128.969 16.7453 129.541 17.872C130.131 18.9813 130.425 20.2727 130.425 21.746C130.425 23.2193 130.131 24.528 129.541 25.672C128.969 26.7987 128.181 27.674 127.175 28.298C126.187 28.922 125.078 29.234 123.847 29.234C122.773 29.234 121.828 29.026 121.013 28.61C120.216 28.1767 119.575 27.622 119.089 26.946V29H115.449V9.76H119.089V16.702ZM126.707 21.746C126.707 20.8793 126.525 20.134 126.161 19.51C125.815 18.8687 125.347 18.3833 124.757 18.054C124.185 17.7247 123.561 17.56 122.885 17.56C122.227 17.56 121.603 17.7333 121.013 18.08C120.441 18.4093 119.973 18.8947 119.609 19.536C119.263 20.1773 119.089 20.9313 119.089 21.798C119.089 22.6647 119.263 23.4187 119.609 24.06C119.973 24.7013 120.441 25.1953 121.013 25.542C121.603 25.8713 122.227 26.036 122.885 26.036C123.561 26.036 124.185 25.8627 124.757 25.516C125.347 25.1693 125.815 24.6753 126.161 24.034C126.525 23.3927 126.707 22.63 126.707 21.746ZM139.726 29.234C138.34 29.234 137.092 28.9307 135.982 28.324C134.873 27.7 133.998 26.8247 133.356 25.698C132.732 24.5713 132.42 23.2713 132.42 21.798C132.42 20.3247 132.741 19.0247 133.382 17.898C134.041 16.7713 134.934 15.9047 136.06 15.298C137.187 14.674 138.444 14.362 139.83 14.362C141.217 14.362 142.474 14.674 143.6 15.298C144.727 15.9047 145.611 16.7713 146.252 17.898C146.911 19.0247 147.24 20.3247 147.24 21.798C147.24 23.2713 146.902 24.5713 146.226 25.698C145.568 26.8247 144.666 27.7 143.522 28.324C142.396 28.9307 141.13 29.234 139.726 29.234ZM139.726 26.062C140.385 26.062 141 25.906 141.572 25.594C142.162 25.2647 142.63 24.7793 142.976 24.138C143.323 23.4967 143.496 22.7167 143.496 21.798C143.496 20.4287 143.132 19.38 142.404 18.652C141.694 17.9067 140.818 17.534 139.778 17.534C138.738 17.534 137.863 17.9067 137.152 18.652C136.459 19.38 136.112 20.4287 136.112 21.798C136.112 23.1673 136.45 24.2247 137.126 24.97C137.82 25.698 138.686 26.062 139.726 26.062ZM149.234 21.746C149.234 20.29 149.52 18.9987 150.092 17.872C150.682 16.7453 151.47 15.8787 152.458 15.272C153.464 14.6653 154.582 14.362 155.812 14.362C156.887 14.362 157.823 14.5787 158.62 15.012C159.435 15.4453 160.085 15.9913 160.57 16.65V14.596H164.236V29H160.57V26.894C160.102 27.57 159.452 28.1333 158.62 28.584C157.806 29.0173 156.861 29.234 155.786 29.234C154.573 29.234 153.464 28.922 152.458 28.298C151.47 27.674 150.682 26.7987 150.092 25.672C149.52 24.528 149.234 23.2193 149.234 21.746ZM160.57 21.798C160.57 20.914 160.397 20.16 160.05 19.536C159.704 18.8947 159.236 18.4093 158.646 18.08C158.057 17.7333 157.424 17.56 156.748 17.56C156.072 17.56 155.448 17.7247 154.876 18.054C154.304 18.3833 153.836 18.8687 153.472 19.51C153.126 20.134 152.952 20.8793 152.952 21.746C152.952 22.6127 153.126 23.3753 153.472 24.034C153.836 24.6753 154.304 25.1693 154.876 25.516C155.466 25.8627 156.09 26.036 156.748 26.036C157.424 26.036 158.057 25.8713 158.646 25.542C159.236 25.1953 159.704 24.71 160.05 24.086C160.397 23.4447 160.57 22.682 160.57 21.798ZM171.691 16.832C172.16 16.0693 172.766 15.4713 173.512 15.038C174.274 14.6047 175.141 14.388 176.111 14.388V18.21H175.149C174.006 18.21 173.139 18.4787 172.55 19.016C171.977 19.5533 171.691 20.4893 171.691 21.824V29H168.051V14.596H171.691V16.832ZM177.887 21.746C177.887 20.29 178.173 18.9987 178.745 17.872C179.335 16.7453 180.132 15.8787 181.137 15.272C182.143 14.6653 183.261 14.362 184.491 14.362C185.427 14.362 186.32 14.57 187.169 14.986C188.019 15.3847 188.695 15.922 189.197 16.598V9.76H192.889V29H189.197V26.868C188.747 27.5787 188.114 28.1507 187.299 28.584C186.485 29.0173 185.54 29.234 184.465 29.234C183.252 29.234 182.143 28.922 181.137 28.298C180.132 27.674 179.335 26.7987 178.745 25.672C178.173 24.528 177.887 23.2193 177.887 21.746ZM189.223 21.798C189.223 20.914 189.05 20.16 188.703 19.536C188.357 18.8947 187.889 18.4093 187.299 18.08C186.71 17.7333 186.077 17.56 185.401 17.56C184.725 17.56 184.101 17.7247 183.529 18.054C182.957 18.3833 182.489 18.8687 182.125 19.51C181.779 20.134 181.605 20.8793 181.605 21.746C181.605 22.6127 181.779 23.3753 182.125 24.034C182.489 24.6753 182.957 25.1693 183.529 25.516C184.119 25.8627 184.743 26.036 185.401 26.036C186.077 26.036 186.71 25.8713 187.299 25.542C187.889 25.1953 188.357 24.71 188.703 24.086C189.05 23.4447 189.223 22.682 189.223 21.798Z" fill="black"/>
<path d="M18.5003 35.8876C17.4674 35.8876 16.419 35.6564 15.602 35.1784L7.12284 30.2914C3.66951 27.9634 3.45367 27.6089 3.45367 23.9551V15.0443C3.45367 11.3905 3.65409 11.0359 7.04576 8.73887L15.5865 3.80553C17.2053 2.86512 19.749 2.86512 21.3678 3.80553L29.8778 8.70803C33.3311 11.0359 33.547 11.3905 33.547 15.0443V23.9397C33.547 27.5934 33.3465 27.948 29.9549 30.2451L21.414 35.1784C20.5815 35.6564 19.5332 35.8876 18.5003 35.8876ZM18.5003 5.42428C17.8528 5.42428 17.2207 5.54762 16.7736 5.8097L8.29451 10.7122C5.78159 12.408 5.78159 12.408 5.78159 15.0443V23.9397C5.78159 26.5759 5.78159 26.5759 8.35617 28.318L16.7736 33.1743C17.6832 33.6984 19.3328 33.6984 20.2424 33.1743L28.7215 28.2718C31.219 26.5759 31.219 26.5759 31.219 23.9397V15.0443C31.219 12.408 31.219 12.408 28.6445 10.6659L20.227 5.8097C19.7799 5.54762 19.1478 5.42428 18.5003 5.42428Z" fill="black"/>
<path d="M18.5 25.2812C15.3088 25.2812 12.7188 22.6912 12.7188 19.5C12.7188 16.3088 15.3088 13.7188 18.5 13.7188C21.6912 13.7188 24.2812 16.3088 24.2812 19.5C24.2812 22.6912 21.6912 25.2812 18.5 25.2812ZM18.5 16.0312C16.5883 16.0312 15.0312 17.5883 15.0312 19.5C15.0312 21.4117 16.5883 22.9688 18.5 22.9688C20.4117 22.9688 21.9688 21.4117 21.9688 19.5C21.9688 17.5883 20.4117 16.0312 18.5 16.0312Z" fill="black"/>

</symbol>
<symbol id="mail" viewBox="0 0 24 24">
<path fill-rule="evenodd" clip-rule="evenodd" d="M20 4C21.6569 4 23 5.34315 23 7V17C23 18.6569 21.6569 20 20 20H4C2.34315 20 1 18.6569 1 17V7C1 5.34315 2.34315 4 4 4H20ZM19.2529 6H4.74718L11.3804 11.2367C11.7437 11.5236 12.2563 11.5236 12.6197 11.2367L19.2529 6ZM3 7.1688V17C3 17.5523 3.44772 18 4 18H20C20.5523 18 21 17.5523 21 17V7.16882L13.8589 12.8065C12.769 13.667 11.231 13.667 10.1411 12.8065L3 7.1688Z" fill="currentColor"/>

</symbol>
<symbol id="phone" viewBox="0 0 24 24">
<path d="M3 5.5C3 14.0604 9.93959 21 18.5 21C18.8862 21 19.2691 20.9859 19.6483 20.9581C20.0834 20.9262 20.3009 20.9103 20.499 20.7963C20.663 20.7019 20.8185 20.5345 20.9007 20.364C21 20.1582 21 19.9181 21 19.438V16.6207C21 16.2169 21 16.015 20.9335 15.842C20.8749 15.6891 20.7795 15.553 20.6559 15.4456C20.516 15.324 20.3262 15.255 19.9468 15.117L16.74 13.9509C16.2985 13.7904 16.0777 13.7101 15.8683 13.7237C15.6836 13.7357 15.5059 13.7988 15.3549 13.9058C15.1837 14.0271 15.0629 14.2285 14.8212 14.6314L14 16C11.3501 14.7999 9.2019 12.6489 8 10L9.36863 9.17882C9.77145 8.93713 9.97286 8.81628 10.0942 8.64506C10.2012 8.49408 10.2643 8.31637 10.2763 8.1317C10.2899 7.92227 10.2096 7.70153 10.0491 7.26005L8.88299 4.05321C8.745 3.67376 8.67601 3.48403 8.55442 3.3441C8.44701 3.22049 8.31089 3.12515 8.15802 3.06645C7.98496 3 7.78308 3 7.37932 3H4.56201C4.08188 3 3.84181 3 3.63598 3.09925C3.4655 3.18146 3.29814 3.33701 3.2037 3.50103C3.08968 3.69907 3.07375 3.91662 3.04189 4.35173C3.01413 4.73086 3 5.11378 3 5.5Z" stroke="currentColor" stroke-width="2" stroke-linecap="round" stroke-linejoin="round"/>

</symbol>
<symbol id="products" viewBox="-47 -19 616 616"><path d="m196.167969 154.878906 63.25 20.398438 63.25-20.398438-63.25-20.394531zm0 0"/><path d="m266.917969 298.101562 75-24.351562v-106.855469l-75 24.351563zm0 0"/><path d="m388.519531 78.75-56.601562-64.140625v55.054687c0 4.710938 3.210937 9.085938 7.925781 9.085938zm0 0"/><path d="m138.515625 0c-14.253906 0-25.347656 12.148438-25.347656 26.402344v359.847656h292.5v-288.429688l-1.398438-1.570312h-64.425781c-14.363281 0-25.425781-12.222656-25.425781-26.585938v-69.664062zm215.09375 146.546875c3.554687 1.195313 5.914063 4.578125 5.808594 8.328125v125.25c.113281 3.746094-2.238281 7.132812-5.792969 8.328125l-91.492188 29.59375c-.851562.277344-1.75.421875-2.648437.421875-.894531 0-1.785156-.144531-2.628906-.421875l-91.628907-29.59375c-3.554687-1.195313-5.914062-4.578125-5.808593-8.328125v-125.25c-.121094-3.746094 2.222656-7.132812 5.777343-8.328125l91.46875-29.589844c1.726563-.566406 3.585938-.566406 5.308594 0zm0 0"/><path d="m176.917969 273.75 72.5 23.546875v-106.859375l-72.5-23.542969zm0 0"/><path d="m-1.832031 460.9375c-.046875 3.765625 1.441406 7.390625 4.117187 10.042969 2.679688 2.652343 6.320313 4.101562 10.082032 4.019531h494.097656c3.765625.082031 7.402344-1.367188 10.082031-4.019531 2.675781-2.652344 4.167969-6.277344 4.121094-10.042969v-294.914062c.148437-7.996094-6.203125-14.609376-14.203125-14.773438h-83.296875v252.5h-425zm0 0"/><path d="m12.367188 111.25c-7.996094.164062-14.347657 6.777344-14.199219 14.773438v260.226562h97.5v-275zm0 0"/><path d="m411.097656 568.75c0-4.835938-3.914062-8.75-8.75-8.75h-55.246094l-18.253906-67.5h-138.855468l-18.25 67.5h-55.253907c-4.828125 0-8.75 3.914062-8.75 8.75s3.921875 8.75 8.75 8.75h285.867188c4.828125-.003906 8.742187-3.921875 8.742187-8.75zm0 0"/>
</symbol>
<symbol id="twitter" viewBox="0 -2 20 20">
    
    <title>twitter [#154]</title>
    <desc>Created with Sketch.</desc>
    <defs>

</defs>
    <g id="Page-1" stroke="currentColor" stroke-width="1" fill="currentColor" fill-rule="evenodd">
        <g id="Dribbble-Light-Preview" transform="translate(-60.000000, -7521.000000)" fill="currentColor">
            <g id="icons" transform="translate(56.000000, 160.000000)">
                <path d="M10.29,7377 C17.837,7377 21.965,7370.84365 21.965,7365.50546 C21.965,7365.33021 21.965,7365.15595 21.953,7364.98267 C22.756,7364.41163 23.449,7363.70276 24,7362.8915 C23.252,7363.21837 22.457,7363.433 21.644,7363.52751 C22.5,7363.02244 23.141,7362.2289 23.448,7361.2926 C22.642,7361.76321 21.761,7362.095 20.842,7362.27321 C19.288,7360.64674 16.689,7360.56798 15.036,7362.09796 C13.971,7363.08447 13.518,7364.55538 13.849,7365.95835 C10.55,7365.79492 7.476,7364.261 5.392,7361.73762 C4.303,7363.58363 4.86,7365.94457 6.663,7367.12996 C6.01,7367.11125 5.371,7366.93797 4.8,7366.62489 L4.8,7366.67608 C4.801,7368.5989 6.178,7370.2549 8.092,7370.63591 C7.488,7370.79836 6.854,7370.82199 6.24,7370.70483 C6.777,7372.35099 8.318,7373.47829 10.073,7373.51078 C8.62,7374.63513 6.825,7375.24554 4.977,7375.24358 C4.651,7375.24259 4.325,7375.22388 4,7375.18549 C5.877,7376.37088 8.06,7377 10.29,7376.99705" id="twitter-[#154]">

</path>
            </g>
        </g>
    </g>

</symbol>
<symbol id="users" viewBox="0 0 42 42">
<path d="M16.0302 19.0229C15.8552 19.0054 15.6452 19.0054 15.4527 19.0229C11.2877 18.8829 7.98024 15.4704 7.98024 11.2704C7.98024 6.98287 11.4452 3.50037 15.7502 3.50037C20.0377 3.50037 23.5202 6.98287 23.5202 11.2704C23.5027 15.4704 20.1952 18.8829 16.0302 19.0229Z" stroke="currentColor" stroke-width="2.625" stroke-linecap="round" stroke-linejoin="round"/>
<path d="M28.7172 6.99963C32.1122 6.99963 34.8422 9.74713 34.8422 13.1246C34.8422 16.4321 32.2172 19.1271 28.9447 19.2496C28.8047 19.2321 28.6472 19.2321 28.4897 19.2496" stroke="currentColor" stroke-width="2.625" stroke-linecap="round" stroke-linejoin="round"/>
<path d="M7.28051 25.4796C3.04551 28.3146 3.04551 32.9346 7.28051 35.7521C12.093 38.9721 19.9855 38.9721 24.798 35.7521C29.033 32.9171 29.033 28.2971 24.798 25.4796C20.003 22.2771 12.1105 22.2771 7.28051 25.4796Z" stroke="currentColor" stroke-width="2.625" stroke-linecap="round" stroke-linejoin="round"/>
<path d="M32.0947 35.0004C33.3547 34.7379 34.5447 34.2304 35.5247 33.4779C38.2547 31.4304 38.2547 28.0529 35.5247 26.0054C34.5622 25.2704 33.3897 24.7804 32.1472 24.5004" stroke="currentColor" stroke-width="2.625" stroke-linecap="round" stroke-linejoin="round"/>

</symbol></svg>